<svg xmlns="http://www.w3.org/2000/svg" xmlns:xlink="http://www.w3.org/1999/xlink" aria-hidden="true" style="position:absolute;width:0;height:0;overflow:hidden" version="1.1"><defs><symbol id="iconclose" viewBox="0 0 32 32"><path d="M19.141 16.123l10.676-10.668c0.36-0.42 0.548-0.96 0.527-1.513s-0.251-1.077-0.642-1.467c-0.391-0.391-0.915-0.62-1.469-0.641s-1.093 0.167-1.514 0.526l-10.676 10.558-10.742-10.734c-0.42-0.36-0.961-0.548-1.514-0.526s-1.077 0.25-1.469 0.641c-0.391 0.391-0.62 0.915-0.642 1.467s0.167 1.093 0.527 1.513l10.72 10.844-10.501 10.361c-0.23 0.197-0.417 0.439-0.549 0.711s-0.206 0.569-0.218 0.871 0.039 0.604 0.15 0.885c0.11 0.282 0.278 0.538 0.492 0.751s0.47 0.381 0.752 0.492c0.282 0.11 0.584 0.161 0.886 0.15s0.599-0.086 0.872-0.217c0.273-0.132 0.515-0.318 0.712-0.548l10.479-10.471 10.413 10.405c0.42 0.359 0.961 0.547 1.514 0.526s1.077-0.25 1.469-0.641c0.391-0.391 0.621-0.915 0.642-1.467s-0.167-1.093-0.527-1.512l-10.369-10.295z"/></symbol><symbol id="iconarrow-left" viewBox="0 0 32 32"><path d="M7.414 16.965l14.861 14.16c0.248 0.236 0.577 0.368 0.92 0.368s0.672-0.132 0.92-0.368l0.016-0.016c0.121-0.115 0.217-0.252 0.282-0.405s0.1-0.317 0.1-0.484-0.034-0.331-0.1-0.484c-0.066-0.153-0.162-0.291-0.282-0.405l-13.995-13.333 13.995-13.328c0.121-0.115 0.217-0.253 0.282-0.405s0.1-0.318 0.1-0.484-0.034-0.331-0.1-0.484c-0.066-0.153-0.162-0.291-0.282-0.405l-0.016-0.016c-0.248-0.236-0.578-0.368-0.92-0.368s-0.672 0.132-0.92 0.368l-14.861 14.16c-0.131 0.125-0.235 0.274-0.306 0.44s-0.108 0.345-0.108 0.525c0 0.181 0.037 0.359 0.108 0.525s0.175 0.316 0.306 0.44z"/></symbol><symbol id="iconarrow-right" viewBox="0 0 32 32"><path d="M24.586 15.035l-14.861-14.16c-0.248-0.236-0.577-0.368-0.92-0.368s-0.672 0.132-0.92 0.368l-0.016 0.016c-0.121 0.115-0.217 0.253-0.282 0.405s-0.099 0.318-0.099 0.484c0 0.166 0.034 0.331 0.099 0.484s0.162 0.291 0.282 0.405l13.995 13.333-13.995 13.328c-0.121 0.115-0.217 0.252-0.282 0.405s-0.099 0.317-0.099 0.484 0.034 0.331 0.099 0.484c0.066 0.153 0.162 0.291 0.282 0.405l0.016 0.016c0.248 0.236 0.577 0.368 0.92 0.368s0.672-0.132 0.92-0.368l14.861-14.16c0.131-0.125 0.235-0.274 0.306-0.44s0.108-0.345 0.108-0.525c0-0.181-0.037-0.359-0.108-0.525s-0.175-0.316-0.306-0.44z"/></symbol><symbol id="iconburger" viewBox="0 0 32 32"><path fill="#7eb101" style="fill:var(--color1, #7eb101)" d="M0.444 6.667c0-0.413 0.164-0.808 0.456-1.1s0.687-0.456 1.1-0.456h28c0.413 0 0.808 0.164 1.1 0.456s0.456 0.687 0.456 1.1c0 0.413-0.164 0.808-0.456 1.1s-0.687 0.456-1.1 0.456h-28c-0.413 0-0.808-0.164-1.1-0.456s-0.456-0.687-0.456-1.1zM0.444 16.050c0-0.413 0.164-0.808 0.456-1.1s0.687-0.456 1.1-0.456h28c0.413 0 0.808 0.164 1.1 0.456s0.456 0.687 0.456 1.1c0 0.413-0.164 0.808-0.456 1.1s-0.687 0.456-1.1 0.456h-28c-0.413 0-0.808-0.164-1.1-0.456s-0.456-0.687-0.456-1.1zM2 23.877c-0.413 0-0.808 0.164-1.1 0.456s-0.456 0.687-0.456 1.1 0.164 0.808 0.456 1.1c0.292 0.292 0.687 0.456 1.1 0.456h28c0.413 0 0.808-0.164 1.1-0.456s0.456-0.687 0.456-1.1c0-0.413-0.164-0.808-0.456-1.1s-0.687-0.456-1.1-0.456h-28z"/></symbol><symbol id="iconellipse" viewBox="0 0 32 32"><path fill="none" stroke="#fff" style="stroke:var(--color2, #fff)" stroke-linecap="butt" stroke-linejoin="miter" stroke-miterlimit="4" stroke-width=".342" d="M31.772 15.945c0 8.711-7.061 15.772-15.772 15.772s-15.772-7.061-15.772-15.772c0-8.711 7.061-15.772 15.772-15.772s15.772 7.061 15.772 15.772z"/></symbol><symbol id="iconellipse-desk" viewBox="0 0 32 32"><path fill="none" stroke="#fff" style="stroke:var(--color2, #fff)" stroke-linecap="butt" stroke-linejoin="miter" stroke-miterlimit="4" stroke-width=".342" d="M31.772 15.945c0 8.711-7.061 15.772-15.772 15.772s-15.772-7.061-15.772-15.772c0-8.711 7.061-15.772 15.772-15.772s15.772 7.061 15.772 15.772z"/></symbol><symbol id="iconellipse-section" viewBox="0 0 32 32"><path fill="#fefefe" style="fill:var(--color3, #fefefe);stroke:var(--color4, #ffe550)" stroke="#ffe550" stroke-linecap="butt" stroke-linejoin="miter" stroke-miterlimit="4" stroke-width="1.248" d="M15.961 0.624h0.078c8.408 0 15.224 6.816 15.224 15.224v0.305c0 8.408-6.816 15.224-15.224 15.224h-0.078c-8.408 0-15.224-6.816-15.224-15.224v-0.305c0-8.408 6.816-15.224 15.224-15.224z"/></symbol><symbol id="iconEllipse-tablet" viewBox="0 0 32 32"><path fill="#fefefe" style="fill:var(--color3, #fefefe);stroke:var(--color4, #ffe550)" stroke="#ffe550" stroke-linecap="butt" stroke-linejoin="miter" stroke-miterlimit="4" stroke-width="1.248" d="M15.961 0.624h0.078c8.408 0 15.224 6.816 15.224 15.224v0.305c0 8.408-6.816 15.224-15.224 15.224h-0.078c-8.408 0-15.224-6.816-15.224-15.224v-0.305c0-8.408 6.816-15.224 15.224-15.224z"/></symbol><symbol id="iconfavicon" viewBox="0 0 32 32"><path fill="#ffe550" style="fill:var(--color4, #ffe550)" d="M13.557 6.456c1.012-1.982 3.84-1.982 4.852 0l1.281 2.51c0.396 0.776 1.139 1.316 1.999 1.453l2.775 0.441c2.198 0.35 3.073 3.049 1.499 4.625l-1.98 1.983c-0.617 0.617-0.901 1.493-0.765 2.356l0.437 2.773c0.347 2.2-1.942 3.868-3.925 2.859l-2.513-1.278c-0.775-0.394-1.692-0.394-2.467 0l-2.513 1.278c-1.983 1.009-4.272-0.659-3.925-2.859l0.437-2.773c0.136-0.863-0.148-1.738-0.765-2.356l-1.98-1.983c-1.574-1.576-0.699-4.275 1.499-4.625l2.775-0.441c0.86-0.137 1.602-0.677 1.999-1.453l1.281-2.51z"/><path fill="#bbf330" style="fill:var(--color5, #bbf330)" d="M16 32c-8.837 0-16-7.163-16-16s7.163-16 16-16c8.837 0 16 7.163 16 16s-7.163 16-16 16zM16 30.294c7.899 0 14.297-6.402 14.297-14.294s-6.398-14.294-14.297-14.294-14.297 6.402-14.297 14.294c0 7.892 6.398 14.294 14.297 14.294z"/></symbol><symbol id="iconfinger" viewBox="0 0 32 32"><path fill="#7eb101" style="fill:var(--color1, #7eb101)" d="M15.449 0.368c2.231 0 4.138 0.779 5.72 2.336s2.372 3.451 2.372 5.683c0 1.275-0.276 2.477-0.828 3.605s-1.33 2.084-2.336 2.869h-1.251v-1.839c0.711-0.564 1.257-1.251 1.637-2.060s0.57-1.667 0.57-2.575c0-1.618-0.576-2.992-1.729-4.12s-2.538-1.692-4.156-1.692c-1.618 0-3.004 0.564-4.156 1.692s-1.729 2.501-1.729 4.12c0 0.907 0.19 1.766 0.57 2.575s0.926 1.496 1.637 2.060v2.648c-1.373-0.711-2.452-1.717-3.237-3.016s-1.177-2.722-1.177-4.267c0-2.231 0.791-4.126 2.372-5.683s3.488-2.336 5.72-2.336zM14.051 31.264c-0.417 0-0.809-0.080-1.177-0.239s-0.687-0.374-0.956-0.644l-7.577-7.577 2.060-2.133c0.343-0.343 0.729-0.607 1.159-0.791s0.877-0.215 1.343-0.092l2.869 0.662v-11.991c0-1.030 0.356-1.9 1.067-2.611s1.582-1.067 2.612-1.067c1.030 0 1.9 0.356 2.611 1.067s1.067 1.582 1.067 2.611v6.326h0.956c0.123 0 0.233 0.024 0.331 0.073s0.208 0.098 0.331 0.147l5.444 2.648c0.588 0.27 1.024 0.705 1.306 1.306s0.362 1.22 0.239 1.857l-1.324 8.018c-0.123 0.711-0.466 1.293-1.030 1.747s-1.202 0.68-1.913 0.68h-9.416zM13.757 29.057h10.336l1.582-9.159-6.731-3.347h-2.023v-8.092c0-0.441-0.135-0.797-0.405-1.067s-0.625-0.405-1.067-0.405-0.797 0.135-1.067 0.405c-0.27 0.27-0.405 0.625-0.405 1.067v14.676l-5.664-1.214-0.846 0.846 6.29 6.29zM24.092 29.057v0z"/></symbol><symbol id="iconlogo" viewBox="0 0 32 32"><path fill="#ffe550" style="fill:var(--color4, #ffe550)" d="M11.143 8.48c0.796-1.562 3.022-1.562 3.818 0l1.008 1.977c0.312 0.612 0.896 1.037 1.573 1.145l2.184 0.348c1.73 0.275 2.419 2.402 1.18 3.644l-1.559 1.562c-0.485 0.486-0.709 1.176-0.602 1.856l0.344 2.184c0.273 1.734-1.528 3.047-3.089 2.252l-1.978-1.007c-0.61-0.311-1.332-0.311-1.942 0l-1.978 1.007c-1.561 0.795-3.362-0.519-3.089-2.253l0.344-2.184c0.107-0.68-0.117-1.37-0.602-1.856l-1.559-1.562c-1.239-1.242-0.55-3.369 1.18-3.644l2.184-0.348c0.677-0.108 1.261-0.533 1.573-1.145l1.008-1.977z"/><path fill="#2c2c2c" style="fill:var(--color6, #2c2c2c)" d="M0.879 19.433l-0.017 0.004c0.002 0.058-0.001 0.295-0.009 0.709-0.002 0.413-0.003 0.684-0.002 0.813-0 0.124-0.003 0.225-0.008 0.302 0 0.076 0.001 0.165 0.001 0.265-0.001 0.095-0.006 0.172-0.015 0.233-0.005 0.054-0.010 0.108-0.014 0.162-0.011 0.103-0.033 0.158-0.067 0.166-0.072 0.017-0.185-0.039-0.339-0.167-0.155-0.134-0.245-0.251-0.268-0.352s-0.030-0.835-0.019-2.205c0.017-1.371-0.020-2.272-0.11-2.704-0.020-0.084-0.016-0.155 0.011-0.215 0.028-0.13 0.172-0.253 0.433-0.368 0.266-0.116 0.664-0.237 1.193-0.362 0.534-0.126 0.958-0.197 1.272-0.213 0.319-0.017 0.491 0.025 0.514 0.126 0.016 0.067-0.020 0.126-0.108 0.176s-0.166 0.092-0.235 0.126c-0.070 0.028-0.161 0.065-0.274 0.109-0.114 0.039-0.22 0.076-0.318 0.111-0.099 0.029-0.227 0.071-0.384 0.126-0.152 0.054-0.293 0.105-0.422 0.153-0.131 0.043-0.307 0.105-0.529 0.187s-0.365 0.134-0.431 0.155c0.010 0.015 0.018 0.040 0.026 0.073 0.062 0.262 0.096 0.89 0.102 1.885 0.349-0.065 0.717-0.161 1.104-0.288 0.393-0.128 0.634-0.203 0.723-0.224 0.211-0.050 0.328-0.030 0.349 0.059 0.041 0.173-0.167 0.375-0.623 0.607-0.451 0.23-0.963 0.414-1.536 0.549z"/><path fill="#2c2c2c" style="fill:var(--color6, #2c2c2c)" d="M6.329 17.895c-0.045-0.19-0.118-0.361-0.218-0.514-0.102-0.158-0.221-0.263-0.356-0.313-0.359 0.197-0.62 0.574-0.782 1.131-0.158 0.55-0.186 1.040-0.085 1.469s0.271 0.672 0.507 0.728c0.382-0.173 0.657-0.527 0.825-1.061 0.172-0.541 0.208-1.021 0.109-1.44zM4.151 18.49c0.092-0.481 0.261-0.898 0.506-1.251 0.25-0.36 0.539-0.578 0.867-0.656 0.334-0.079 0.646-0.003 0.936 0.229 0.289 0.226 0.481 0.543 0.577 0.95 0.095 0.402 0.095 0.838 0.001 1.308-0.096 0.465-0.283 0.877-0.562 1.238-0.275 0.354-0.604 0.576-0.988 0.667-0.284 0.067-0.551-0.008-0.803-0.225s-0.424-0.527-0.519-0.929c-0.096-0.407-0.101-0.851-0.015-1.331z"/><path fill="#2c2c2c" style="fill:var(--color6, #2c2c2c)" d="M10.111 17c-0.045-0.19-0.118-0.361-0.218-0.514-0.102-0.158-0.221-0.263-0.356-0.313-0.359 0.197-0.62 0.574-0.782 1.131-0.158 0.55-0.186 1.040-0.085 1.469s0.271 0.672 0.507 0.728c0.382-0.173 0.657-0.527 0.825-1.061 0.172-0.541 0.208-1.021 0.109-1.44zM7.934 17.595c0.092-0.481 0.261-0.898 0.506-1.251 0.25-0.36 0.539-0.578 0.867-0.656 0.334-0.079 0.646-0.003 0.936 0.229 0.289 0.226 0.481 0.543 0.577 0.95 0.095 0.402 0.095 0.838 0.001 1.308-0.096 0.465-0.283 0.877-0.562 1.238-0.275 0.354-0.604 0.576-0.988 0.667-0.284 0.067-0.551-0.008-0.803-0.225s-0.424-0.527-0.519-0.929c-0.096-0.407-0.101-0.851-0.015-1.331z"/><path fill="#2c2c2c" style="fill:var(--color6, #2c2c2c)" d="M14.055 12.090c0.089-0.021 0.217 0.037 0.385 0.174 0.172 0.13 0.275 0.268 0.309 0.413s0.062 0.574 0.084 1.288c0.020 0.708 0.025 1.446 0.012 2.215-0.016 1.724-0.087 2.601-0.215 2.631-0.078 0.018-0.175-0.009-0.292-0.081-0.113-0.079-0.178-0.155-0.195-0.228s-0.032-0.222-0.044-0.449c-0.413 0.687-0.823 1.079-1.23 1.175-0.245 0.058-0.494-0.001-0.747-0.177-0.248-0.177-0.4-0.386-0.456-0.625-0.082-0.346-0.087-0.778-0.015-1.295 0.076-0.525 0.243-1.024 0.501-1.497s0.585-0.757 0.98-0.851 0.727 0.078 0.995 0.516c0.004-1.25-0.061-2.221-0.195-2.914-0.040-0.167 0.002-0.266 0.124-0.295zM14.108 16.416c-0.071-0.301-0.184-0.543-0.339-0.724-0.149-0.183-0.296-0.257-0.441-0.223-0.239 0.057-0.449 0.262-0.63 0.617s-0.3 0.743-0.36 1.163c-0.055 0.414-0.050 0.76 0.016 1.039 0.024 0.1 0.079 0.173 0.166 0.217s0.18 0.055 0.281 0.031c0.217-0.051 0.472-0.277 0.766-0.676 0.299-0.401 0.482-0.833 0.549-1.296l0.001-0.106-0.010-0.042z"/><path fill="#2c2c2c" style="fill:var(--color6, #2c2c2c)" d="M19.437 15.915c0.108 0.458-0.007 0.891-0.345 1.301-0.339 0.404-0.776 0.67-1.31 0.796-0.529 0.125-0.998 0.092-1.407-0.1-0.411-0.197-0.645-0.419-0.704-0.664-0.040-0.167-0.009-0.263 0.091-0.287 0.089-0.021 0.296 0.071 0.621 0.277 0.123 0.071 0.277 0.129 0.464 0.173 0.192 0.043 0.383 0.042 0.572-0.003 0.39-0.092 0.711-0.274 0.964-0.546 0.259-0.273 0.36-0.527 0.305-0.761-0.036-0.151-0.181-0.319-0.437-0.506s-0.53-0.355-0.824-0.503c-0.289-0.155-0.563-0.329-0.82-0.522s-0.402-0.358-0.435-0.498-0.040-0.294-0.021-0.463c0.019-0.169 0.053-0.298 0.102-0.387 0.16-0.291 0.445-0.591 0.854-0.9 0.414-0.31 0.777-0.502 1.089-0.576 0.161-0.038 0.31-0.017 0.447 0.062s0.218 0.178 0.246 0.295c0.013 0.056-0.035 0.114-0.144 0.175s-0.276 0.148-0.503 0.26c-0.222 0.105-0.416 0.216-0.583 0.332-0.582 0.397-0.846 0.71-0.792 0.939 0.029 0.123 0.436 0.389 1.22 0.798 0.302 0.158 0.587 0.359 0.856 0.601 0.273 0.236 0.437 0.471 0.493 0.705z"/><path fill="#2c2c2c" style="fill:var(--color6, #2c2c2c)" d="M21.355 16.336c0.025 0.106 0.099 0.145 0.221 0.116 0.212-0.050 0.454-0.169 0.726-0.358 0.277-0.195 0.432-0.297 0.466-0.305 0.1-0.024 0.163 0.017 0.188 0.123 0.038 0.162-0.084 0.388-0.368 0.679-0.278 0.29-0.554 0.467-0.826 0.531-0.267 0.063-0.507 0.043-0.719-0.059-0.214-0.108-0.339-0.241-0.376-0.397s-0.050-0.362-0.040-0.618c0.009-0.261 0.028-0.604 0.056-1.030 0.033-0.432 0.055-0.788 0.065-1.067-0.247 0.123-0.415 0.195-0.504 0.217s-0.189-0.002-0.299-0.071c-0.106-0.075-0.169-0.154-0.189-0.238-0.032-0.134 0.3-0.348 0.994-0.642-0.009-0.487-0.056-0.909-0.14-1.266-0.040-0.167-0.004-0.264 0.108-0.291 0.095-0.022 0.226 0.011 0.394 0.101 0.167 0.084 0.268 0.202 0.304 0.352s0.051 0.427 0.046 0.829c0.311-0.103 0.561-0.177 0.75-0.222 0.334-0.079 0.518-0.046 0.552 0.099 0.020 0.084-0.056 0.175-0.226 0.274-0.165 0.098-0.523 0.274-1.074 0.528-0.013 0.468-0.041 1.008-0.084 1.619-0.045 0.606-0.053 0.97-0.024 1.093z"/><path fill="#2c2c2c" style="fill:var(--color6, #2c2c2c)" d="M25.085 11.953c0.25-0.059 0.512 0.014 0.784 0.221 0.271 0.201 0.431 0.405 0.479 0.611 0.047 0.201 0.027 0.424-0.062 0.669 0.087 0.068 0.137 0.132 0.152 0.194 0.037 0.156 0.064 0.433 0.081 0.829 0.023 0.395 0.040 0.653 0.051 0.774 0.017 0.12 0.028 0.217 0.034 0.292 0.005 0.070 0.007 0.14 0.006 0.211 0.011 0.145-0.023 0.226-0.101 0.245-0.1 0.024-0.204-0.043-0.312-0.2-0.103-0.164-0.194-0.384-0.271-0.661-0.346 0.748-0.731 1.172-1.154 1.272-0.256 0.061-0.535 0.012-0.837-0.147-0.298-0.165-0.474-0.365-0.529-0.599-0.079-0.335-0.054-0.777 0.075-1.325 0.127-0.554 0.34-1.070 0.639-1.547s0.62-0.757 0.965-0.838zM25.817 13.335c-0.123-0.519-0.287-0.754-0.493-0.705-0.217 0.051-0.433 0.268-0.649 0.648-0.217 0.375-0.379 0.782-0.487 1.22s-0.135 0.771-0.081 1c0.022 0.095 0.080 0.164 0.172 0.207 0.091 0.037 0.189 0.044 0.295 0.019 0.262-0.062 0.515-0.307 0.76-0.737 0.244-0.435 0.37-0.921 0.378-1.459-0.003-0.088 0.032-0.149 0.106-0.184l-0.002-0.008z"/><path fill="#bbf330" style="fill:var(--color5, #bbf330)" d="M24.234 19.13c-0.239 0.059-0.427 0.241-0.505 0.474-1.502 4.451-5.707 7.658-10.664 7.658-3.006 0-5.735-1.179-7.753-3.1-0.178-0.169-0.428-0.242-0.666-0.183-0.503 0.125-0.694 0.736-0.32 1.097 2.265 2.186 5.345 3.53 8.739 3.53 5.576 0 10.306-3.628 11.962-8.656 0.162-0.493-0.29-0.945-0.793-0.82z"/><path fill="#bbf330" style="fill:var(--color5, #bbf330)" d="M1.471 14.543c0.272-0.067 0.474-0.294 0.524-0.571 0.954-5.251 5.546-9.234 11.070-9.234 3.592 0 6.79 1.684 8.849 4.305 0.173 0.22 0.456 0.326 0.727 0.259 0.46-0.114 0.668-0.65 0.377-1.025-2.304-2.971-5.906-4.883-9.954-4.883-6.21 0-11.37 4.5-12.404 10.419-0.082 0.467 0.351 0.843 0.809 0.729z"/><path fill="#bbf330" style="fill:var(--color5, #bbf330)" d="M32 7.595c-2.976 5.705-4.282 1.942-8.472 4.153 0.419-6.623 4.856-2.593 8.472-4.153z"/></symbol><symbol id="iconrocket" viewBox="0 0 32 32"><path fill="#7eb101" style="fill:var(--color1, #7eb101)" d="M4.838 13.295l4.038 1.714c0.457-0.914 0.946-1.816 1.467-2.705s1.073-1.74 1.657-2.552l-3.010-0.61-4.152 4.152zM10.705 16.381l5.067 5.067c1.448-0.66 2.806-1.41 4.076-2.248s2.298-1.651 3.086-2.438c2.057-2.057 3.568-4.165 4.533-6.324s1.486-4.597 1.562-7.314c-2.718 0.076-5.156 0.597-7.314 1.562s-4.267 2.476-6.324 4.533c-0.787 0.787-1.6 1.816-2.438 3.086s-1.587 2.629-2.248 4.076zM19.429 12.724c-0.508-0.508-0.762-1.137-0.762-1.886s0.254-1.378 0.762-1.886 1.136-0.762 1.886-0.762c0.749 0 1.378 0.254 1.886 0.762s0.762 1.136 0.762 1.886c0 0.749-0.254 1.378-0.762 1.886s-1.136 0.762-1.886 0.762-1.378-0.254-1.886-0.762zM18.857 27.314l4.152-4.152-0.61-3.009c-0.813 0.584-1.664 1.136-2.552 1.657s-1.791 1.009-2.705 1.467l1.714 4.038zM31.276 0.876c0.229 3.454-0.203 6.603-1.295 9.448s-2.895 5.524-5.41 8.038l-0.152 0.152 0.838 4.191c0.076 0.381 0.057 0.749-0.057 1.105s-0.311 0.673-0.59 0.952l-6.514 6.552-3.238-7.543-6.476-6.476-7.543-3.238 6.552-6.514c0.279-0.279 0.597-0.476 0.952-0.59s0.724-0.133 1.105-0.057l4.19 0.838c0.025-0.025 0.051-0.044 0.076-0.057s0.051-0.032 0.076-0.057c2.514-2.514 5.194-4.324 8.038-5.429s5.994-1.543 9.448-1.314zM3.39 21.905c0.889-0.889 1.975-1.34 3.257-1.352s2.368 0.425 3.257 1.314c0.889 0.889 1.327 1.974 1.314 3.257s-0.463 2.368-1.352 3.257c-0.66 0.66-1.683 1.206-3.067 1.638s-3.46 0.838-6.229 1.219c0.381-2.768 0.781-4.851 1.2-6.248s0.959-2.425 1.619-3.086zM4.99 23.543c-0.356 0.381-0.673 0.978-0.952 1.791s-0.521 1.854-0.724 3.124c1.27-0.203 2.311-0.444 3.124-0.724s1.41-0.597 1.79-0.952c0.483-0.432 0.73-0.971 0.743-1.619s-0.21-1.213-0.667-1.695c-0.483-0.457-1.048-0.679-1.695-0.667s-1.187 0.26-1.619 0.743z"/></symbol><symbol id="iconwarning" viewBox="0 0 32 32"><path d="M14.424 6.148l-10.785 17.449c-1.165 1.885-0.316 3.403 1.889 3.403h20.944c2.204 0 3.050-1.523 1.889-3.403l-10.785-17.449c-0.868-1.404-2.281-1.408-3.151 0zM15.353 6.523c0.347-0.561 0.912-0.559 1.258 0l11.005 17.783c0.579 0.936 0.146 1.695-0.942 1.695h-21.384c-1.099 0-1.524-0.754-0.942-1.695l11.005-17.783zM16 12c-0.552 0-1 0.453-1 0.997v6.006c0 0.551 0.444 0.997 1 0.997 0.552 0 1-0.453 1-0.997v-6.006c0-0.551-0.444-0.997-1-0.997v0zM16 24c0.552 0 1-0.448 1-1s-0.448-1-1-1c-0.552 0-1 0.448-1 1s0.448 1 1 1v0z"/></symbol></defs></svg>